<svg version="1.1" xmlns="http://www.w3.org/2000/svg" viewBox="0 0 160 180" width="320" height="360">
  <!-- svg-source:excalidraw -->

  <defs>
    <style class="style-fonts">

    </style>

  </defs>
  <rect x="0" y="0" width="160" height="180" fill="#ffffff"></rect><g stroke-linecap="round" transform="translate(10 10) rotate(0 20 20)"><path d="M40 20 C40 21.16, 39.9 22.33, 39.7 23.47 C39.5 24.61, 39.19 25.75, 38.79 26.84 C38.4 27.93, 37.9 29, 37.32 30 C36.74 31, 36.07 31.97, 35.32 32.86 C34.58 33.74, 33.74 34.58, 32.86 35.32 C31.97 36.07, 31 36.74, 30 37.32 C29 37.9, 27.93 38.4, 26.84 38.79 C25.75 39.19, 24.61 39.5, 23.47 39.7 C22.33 39.9, 21.16 40, 20 40 C18.84 40, 17.67 39.9, 16.53 39.7 C15.39 39.5, 14.25 39.19, 13.16 38.79 C12.07 38.4, 11 37.9, 10 37.32 C9 36.74, 8.03 36.07, 7.14 35.32 C6.26 34.58, 5.42 33.74, 4.68 32.86 C3.93 31.97, 3.26 31, 2.68 30 C2.1 29, 1.6 27.93, 1.21 26.84 C0.81 25.75, 0.5 24.61, 0.3 23.47 C0.1 22.33, 0 21.16, 0 20 C0 18.84, 0.1 17.67, 0.3 16.53 C0.5 15.39, 0.81 14.25, 1.21 13.16 C1.6 12.07, 2.1 11, 2.68 10 C3.26 9, 3.93 8.03, 4.68 7.14 C5.42 6.26, 6.26 5.42, 7.14 4.68 C8.03 3.93, 9 3.26, 10 2.68 C11 2.1, 12.07 1.6, 13.16 1.21 C14.25 0.81, 15.39 0.5, 16.53 0.3 C17.67 0.1, 18.84 0, 20 0 C21.16 0, 22.33 0.1, 23.47 0.3 C24.61 0.5, 25.75 0.81, 26.84 1.21 C27.93 1.6, 29 2.1, 30 2.68 C31 3.26, 31.97 3.93, 32.86 4.68 C33.74 5.42, 34.58 6.26, 35.32 7.14 C36.07 8.03, 36.74 9, 37.32 10 C37.9 11, 38.4 12.07, 38.79 13.16 C39.19 14.25, 39.5 15.39, 39.7 16.53 C39.9 17.67, 39.95 19.42, 40 20 C40.05 20.58, 40.05 19.42, 40 20" stroke="#1e1e1e" stroke-width="2" fill="none"></path></g><g stroke-linecap="round" transform="translate(10 70) rotate(0 20 20)"><path d="M40 20 C40 21.16, 39.9 22.33, 39.7 23.47 C39.5 24.61, 39.19 25.75, 38.79 26.84 C38.4 27.93, 37.9 29, 37.32 30 C36.74 31, 36.07 31.97, 35.32 32.86 C34.58 33.74, 33.74 34.58, 32.86 35.32 C31.97 36.07, 31 36.74, 30 37.32 C29 37.9, 27.93 38.4, 26.84 38.79 C25.75 39.19, 24.61 39.5, 23.47 39.7 C22.33 39.9, 21.16 40, 20 40 C18.84 40, 17.67 39.9, 16.53 39.7 C15.39 39.5, 14.25 39.19, 13.16 38.79 C12.07 38.4, 11 37.9, 10 37.32 C9 36.74, 8.03 36.07, 7.14 35.32 C6.26 34.58, 5.42 33.74, 4.68 32.86 C3.93 31.97, 3.26 31, 2.68 30 C2.1 29, 1.6 27.93, 1.21 26.84 C0.81 25.75, 0.5 24.61, 0.3 23.47 C0.1 22.33, 0 21.16, 0 20 C0 18.84, 0.1 17.67, 0.3 16.53 C0.5 15.39, 0.81 14.25, 1.21 13.16 C1.6 12.07, 2.1 11, 2.68 10 C3.26 9, 3.93 8.03, 4.68 7.14 C5.42 6.26, 6.26 5.42, 7.14 4.68 C8.03 3.93, 9 3.26, 10 2.68 C11 2.1, 12.07 1.6, 13.16 1.21 C14.25 0.81, 15.39 0.5, 16.53 0.3 C17.67 0.1, 18.84 0, 20 0 C21.16 0, 22.33 0.1, 23.47 0.3 C24.61 0.5, 25.75 0.81, 26.84 1.21 C27.93 1.6, 29 2.1, 30 2.68 C31 3.26, 31.97 3.93, 32.86 4.68 C33.74 5.42, 34.58 6.26, 35.32 7.14 C36.07 8.03, 36.74 9, 37.32 10 C37.9 11, 38.4 12.07, 38.79 13.16 C39.19 14.25, 39.5 15.39, 39.7 16.53 C39.9 17.67, 39.95 19.42, 40 20 C40.05 20.58, 40.05 19.42, 40 20" stroke="#1e1e1e" stroke-width="2" fill="none"></path></g><g stroke-linecap="round" transform="translate(10 130) rotate(0 20 20)"><path d="M40 20 C40 21.16, 39.9 22.33, 39.7 23.47 C39.5 24.61, 39.19 25.75, 38.79 26.84 C38.4 27.93, 37.9 29, 37.32 30 C36.74 31, 36.07 31.97, 35.32 32.86 C34.58 33.74, 33.74 34.58, 32.86 35.32 C31.97 36.07, 31 36.74, 30 37.32 C29 37.9, 27.93 38.4, 26.84 38.79 C25.75 39.19, 24.61 39.5, 23.47 39.7 C22.33 39.9, 21.16 40, 20 40 C18.84 40, 17.67 39.9, 16.53 39.7 C15.39 39.5, 14.25 39.19, 13.16 38.79 C12.07 38.4, 11 37.9, 10 37.32 C9 36.74, 8.03 36.07, 7.14 35.32 C6.26 34.58, 5.42 33.74, 4.68 32.86 C3.93 31.97, 3.26 31, 2.68 30 C2.1 29, 1.6 27.93, 1.21 26.84 C0.81 25.75, 0.5 24.61, 0.3 23.47 C0.1 22.33, 0 21.16, 0 20 C0 18.84, 0.1 17.67, 0.3 16.53 C0.5 15.39, 0.81 14.25, 1.21 13.16 C1.6 12.07, 2.1 11, 2.68 10 C3.26 9, 3.93 8.03, 4.68 7.14 C5.42 6.26, 6.26 5.42, 7.14 4.68 C8.03 3.93, 9 3.26, 10 2.68 C11 2.1, 12.07 1.6, 13.16 1.21 C14.25 0.81, 15.39 0.5, 16.53 0.3 C17.67 0.1, 18.84 0, 20 0 C21.16 0, 22.33 0.1, 23.47 0.3 C24.61 0.5, 25.75 0.81, 26.84 1.21 C27.93 1.6, 29 2.1, 30 2.68 C31 3.26, 31.97 3.93, 32.86 4.68 C33.74 5.42, 34.58 6.26, 35.32 7.14 C36.07 8.03, 36.74 9, 37.32 10 C37.9 11, 38.4 12.07, 38.79 13.16 C39.19 14.25, 39.5 15.39, 39.7 16.53 C39.9 17.67, 39.95 19.42, 40 20 C40.05 20.58, 40.05 19.42, 40 20" stroke="#1e1e1e" stroke-width="2" fill="none"></path></g><g stroke-linecap="round" transform="translate(110 30) rotate(0 20 20)"><path d="M40 20 C40 21.16, 39.9 22.33, 39.7 23.47 C39.5 24.61, 39.19 25.75, 38.79 26.84 C38.4 27.93, 37.9 29, 37.32 30 C36.74 31, 36.07 31.97, 35.32 32.86 C34.58 33.74, 33.74 34.58, 32.86 35.32 C31.97 36.07, 31 36.74, 30 37.32 C29 37.9, 27.93 38.4, 26.84 38.79 C25.75 39.19, 24.61 39.5, 23.47 39.7 C22.33 39.9, 21.16 40, 20 40 C18.84 40, 17.67 39.9, 16.53 39.7 C15.39 39.5, 14.25 39.19, 13.16 38.79 C12.07 38.4, 11 37.9, 10 37.32 C9 36.74, 8.03 36.07, 7.14 35.32 C6.26 34.58, 5.42 33.74, 4.68 32.86 C3.93 31.97, 3.26 31, 2.68 30 C2.1 29, 1.6 27.93, 1.21 26.84 C0.81 25.75, 0.5 24.61, 0.3 23.47 C0.1 22.33, 0 21.16, 0 20 C0 18.84, 0.1 17.67, 0.3 16.53 C0.5 15.39, 0.81 14.25, 1.21 13.16 C1.6 12.07, 2.1 11, 2.68 10 C3.26 9, 3.93 8.03, 4.68 7.14 C5.42 6.26, 6.26 5.42, 7.14 4.68 C8.03 3.93, 9 3.26, 10 2.68 C11 2.1, 12.07 1.6, 13.16 1.21 C14.25 0.81, 15.39 0.5, 16.53 0.3 C17.67 0.1, 18.84 0, 20 0 C21.16 0, 22.33 0.1, 23.47 0.3 C24.61 0.5, 25.75 0.81, 26.84 1.21 C27.93 1.6, 29 2.1, 30 2.68 C31 3.26, 31.97 3.93, 32.86 4.68 C33.74 5.42, 34.58 6.26, 35.32 7.14 C36.07 8.03, 36.74 9, 37.32 10 C37.9 11, 38.4 12.07, 38.79 13.16 C39.19 14.25, 39.5 15.39, 39.7 16.53 C39.9 17.67, 39.95 19.42, 40 20 C40.05 20.58, 40.05 19.42, 40 20" stroke="#1e1e1e" stroke-width="2" fill="none"></path></g><g stroke-linecap="round" transform="translate(110 90) rotate(0 20 20)"><path d="M40 20 C40 21.16, 39.9 22.33, 39.7 23.47 C39.5 24.61, 39.19 25.75, 38.79 26.84 C38.4 27.93, 37.9 29, 37.32 30 C36.74 31, 36.07 31.97, 35.32 32.86 C34.58 33.74, 33.74 34.58, 32.86 35.32 C31.97 36.07, 31 36.74, 30 37.32 C29 37.9, 27.93 38.4, 26.84 38.79 C25.75 39.19, 24.61 39.5, 23.47 39.7 C22.33 39.9, 21.16 40, 20 40 C18.84 40, 17.67 39.9, 16.53 39.7 C15.39 39.5, 14.25 39.19, 13.16 38.79 C12.07 38.4, 11 37.9, 10 37.32 C9 36.74, 8.03 36.07, 7.14 35.32 C6.26 34.58, 5.42 33.74, 4.68 32.86 C3.93 31.97, 3.26 31, 2.68 30 C2.1 29, 1.6 27.93, 1.21 26.84 C0.81 25.75, 0.5 24.61, 0.3 23.47 C0.1 22.33, 0 21.16, 0 20 C0 18.84, 0.1 17.67, 0.3 16.53 C0.5 15.39, 0.81 14.25, 1.21 13.16 C1.6 12.07, 2.1 11, 2.68 10 C3.26 9, 3.93 8.03, 4.68 7.14 C5.42 6.26, 6.26 5.42, 7.14 4.68 C8.03 3.93, 9 3.26, 10 2.68 C11 2.1, 12.07 1.6, 13.16 1.21 C14.25 0.81, 15.39 0.5, 16.53 0.3 C17.67 0.1, 18.84 0, 20 0 C21.16 0, 22.33 0.1, 23.47 0.3 C24.61 0.5, 25.75 0.81, 26.84 1.21 C27.93 1.6, 29 2.1, 30 2.68 C31 3.26, 31.97 3.93, 32.86 4.68 C33.74 5.42, 34.58 6.26, 35.32 7.14 C36.07 8.03, 36.74 9, 37.32 10 C37.9 11, 38.4 12.07, 38.79 13.16 C39.19 14.25, 39.5 15.39, 39.7 16.53 C39.9 17.67, 39.95 19.42, 40 20 C40.05 20.58, 40.05 19.42, 40 20" stroke="#1e1e1e" stroke-width="2" fill="none"></path></g><g stroke-linecap="round"><g transform="translate(50 30) rotate(0 30 10)"><path d="M0 0 C10 3.33, 50 16.67, 60 20 M0 0 C10 3.33, 50 16.67, 60 20" stroke="#1e1e1e" stroke-width="2" fill="none"></path></g></g><mask></mask><g stroke-linecap="round"><g transform="translate(50 90) rotate(0 30 -20)"><path d="M0 0 C10 -6.67, 50 -33.33, 60 -40 M0 0 C10 -6.67, 50 -33.33, 60 -40" stroke="#1e1e1e" stroke-width="2" fill="none"></path></g></g><mask></mask><g stroke-linecap="round"><g transform="translate(50 150) rotate(0 30 -50)"><path d="M0 0 C10 -16.67, 50 -83.33, 60 -100 M0 0 C10 -16.67, 50 -83.33, 60 -100" stroke="#1e1e1e" stroke-width="2" fill="none"></path></g></g><mask></mask><g stroke-linecap="round"><g transform="translate(50 30) rotate(0 30 40)"><path d="M0 0 C10 13.33, 50 66.67, 60 80 M0 0 C10 13.33, 50 66.67, 60 80" stroke="#1e1e1e" stroke-width="2" fill="none"></path></g></g><mask></mask><g stroke-linecap="round"><g transform="translate(50 90) rotate(0 30 10)"><path d="M0 0 C10 3.33, 50 16.67, 60 20 M0 0 C10 3.33, 50 16.67, 60 20" stroke="#1e1e1e" stroke-width="2" fill="none"></path></g></g><mask></mask><g stroke-linecap="round"><g transform="translate(50 150) rotate(0 30 -20)"><path d="M0 0 C10 -6.67, 50 -33.33, 60 -40 M0 0 C10 -6.67, 50 -33.33, 60 -40" stroke="#1e1e1e" stroke-width="2" fill="none"></path></g></g><mask></mask></svg>
