<?xml version="1.0" encoding="utf-8"?>
<!-- Generator: Adobe Illustrator 27.0.0, SVG Export Plug-In . SVG Version: 6.00 Build 0)  -->
<svg version="1.1" id="Layer_1" xmlns="http://www.w3.org/2000/svg" xmlns:xlink="http://www.w3.org/1999/xlink" x="0px" y="0px"
	 viewBox="0 0 1279.9 1280" style="enable-background:new 0 0 1279.9 1280;" xml:space="preserve">
<style type="text/css">
	.st0{fill:#231F20;}
	.st1{fill:#FFFFFF;}
</style>
<g id="Layer_2_00000119111720200869582140000009379513677720666042_">
	<rect y="-11.2" class="st0" width="1280" height="1291.2"/>
</g>
<g id="Layer_1_00000139284379121504454420000010322391262824411568_">
	<path class="st0" d="M0,0"/>
	<path class="st1" d="M570.4,109.7h-0.7c-15.2,0.1-30.3,0.9-45.2,2.4c-229.9,23.5-409.2,217.8-409.2,453.8
		c0,179.9,104.2,335.6,255.6,409.8L266,1080.5l-0.9,0.9c-17.7,18-17.5,46.8,0.4,64.5s46.8,17.5,64.5-0.4l135.8-135.8
		c19.3,4.6,38.9,7.9,58.7,9.9v93.6c0,25.2,20.4,45.7,45.6,45.7c25.2,0,45.7-20.4,45.7-45.6c0,0,0,0,0-0.1V155.3
		C615.8,130.2,595.5,109.8,570.4,109.7z M498,923.4c-1-0.1-2-0.3-3-0.7C330.2,887.5,206.6,741,206.6,565.8S330.2,244.1,495,208.9
		c1-0.3,2-0.6,3-0.7c0.5-0.2,1.1-0.2,1.6-0.2c0.7-0.1,1.5-0.1,2.2-0.1c12.6,0,22.8,10.2,22.8,22.8v670.2c0,12.6-10.2,22.8-22.8,22.8
		c-0.7,0-1.5,0-2.2-0.1C499,923.7,498.5,923.6,498,923.4z"/>
	<path class="st1" d="M908.9,975.5l106.3,106.3c17.3,18.3,16.6,47.2-1.8,64.5c-17.6,16.6-45.1,16.6-62.7,0l-1.6-1.6l-135.1-135
		c-19.3,4.6-38.9,7.9-58.7,9.9v93.6c0,25.2-20.4,45.7-45.6,45.7s-45.7-20.4-45.7-45.6c0,0,0,0,0-0.1V155.3
		c0-25.1,20.2-45.5,45.3-45.7h0.7c25,0.2,45.2,20.6,45.2,45.7v745.6c0,12.6,10.2,22.8,22.8,22.8c0.7,0,1.5,0,2.2-0.1
		c0.5-0.1,1.1-0.2,1.6-0.2c1-0.2,2-0.3,3-0.7h0.1c164.8-35.2,288.3-181.7,288.3-356.9c0-25.2,20.4-45.7,45.7-45.7
		s45.7,20.4,45.7,45.7C1164.5,745.8,1060.3,901.4,908.9,975.5z"/>
	<path class="st1" d="M0,0"/>
</g>
</svg>
