<?xml version="1.0" encoding="utf-8"?>
<!-- Generator: Adobe Illustrator 27.0.0, SVG Export Plug-In . SVG Version: 6.00 Build 0)  -->
<svg version="1.1" id="Layer_1" xmlns="http://www.w3.org/2000/svg" xmlns:xlink="http://www.w3.org/1999/xlink" x="0px" y="0px"
	 viewBox="0 0 1279.9 1280" style="enable-background:new 0 0 1279.9 1280;" xml:space="preserve">
<style type="text/css">
	.st0{fill:#FFFFFF;}
</style>
<path class="st0" d="M555.2,0h-0.9c-18.6,0.1-37,1.1-55.1,2.9C218.7,31.6,0,268.6,0,556.5C0,776,127.1,965.9,311.8,1056.4l-128,128
	l-1.1,1.1c-21.6,21.9-21.4,57.1,0.5,78.7s57.1,21.4,78.7-0.5L427.6,1098c23.6,5.6,47.5,9.6,71.6,12.1v114.2
	c0,30.7,24.9,55.7,55.6,55.7c30.7,0,55.7-24.9,55.7-55.6c0,0,0,0,0-0.1V55.7C610.5,25.1,585.8,0.2,555.2,0z M466.8,992.7
	c-1.2-0.1-2.5-0.4-3.7-0.8c-201-43-351.8-221.6-351.8-435.4s150.8-392.4,351.8-435.4c1.2-0.4,2.4-0.7,3.7-0.8
	c0.6-0.2,1.3-0.3,1.9-0.3c0.9-0.1,1.8-0.1,2.7-0.1c15.4,0,27.8,12.5,27.8,27.8v817.6c0,15.4-12.5,27.8-27.8,27.8
	c-0.9,0-1.8,0-2.7-0.1C468,993,467.4,992.9,466.8,992.7z"/>
<path class="st0" d="M968.1,1056.3l129.7,129.7c21.1,22.3,20.2,57.6-2.2,78.7c-21.5,20.3-55,20.3-76.5,0l-2-2L852.3,1098
	c-23.6,5.6-47.5,9.6-71.6,12.1v114.2c0,30.7-24.9,55.7-55.6,55.7c-30.7,0-55.7-24.9-55.7-55.6c0,0,0,0,0-0.1V55.7
	c0-30.6,24.7-55.5,55.3-55.7h0.9c30.5,0.3,55.1,25.1,55.1,55.7v909.6c0,15.4,12.5,27.8,27.8,27.8c0.9,0,1.8,0,2.7-0.1
	c0.6-0.1,1.3-0.2,1.9-0.3c1.2-0.2,2.5-0.4,3.7-0.8h0.1c201-43,351.7-221.6,351.7-435.4c0-30.7,24.9-55.7,55.7-55.7
	s55.7,24.9,55.7,55.7C1279.9,776,1152.8,965.8,968.1,1056.3z"/>
</svg>
